<mxfile host="app.diagrams.net" modified="2023-12-07T21:11:11.393Z" agent="Mozilla/5.0 (X11; Linux x86_64) AppleWebKit/537.36 (KHTML, like Gecko) Chrome/117.0.0.0 Safari/537.36" etag="NPsRbO_20I1JVwxkh6Yb" version="22.1.7" type="device">
  <diagram name="Page-1" id="gQeFIkByvNspfev2CRex">
    <mxGraphModel dx="1362" dy="803" grid="1" gridSize="10" guides="1" tooltips="1" connect="1" arrows="1" fold="1" page="1" pageScale="1" pageWidth="850" pageHeight="1100" math="0" shadow="0">
      <root>
        <mxCell id="0" />
        <mxCell id="1" parent="0" />
        <mxCell id="bzcQoa7W-EtqwlG97-EW-1" value="" style="edgeStyle=orthogonalEdgeStyle;rounded=0;orthogonalLoop=1;jettySize=auto;html=1;strokeColor=none;labelBackgroundColor=none;fontColor=default;" edge="1" parent="1" source="bzcQoa7W-EtqwlG97-EW-2" target="bzcQoa7W-EtqwlG97-EW-5">
          <mxGeometry relative="1" as="geometry" />
        </mxCell>
        <mxCell id="bzcQoa7W-EtqwlG97-EW-2" value="&lt;p style=&quot;margin:0px;margin-top:4px;text-align:center;&quot;&gt;&lt;b&gt;Database&lt;/b&gt;&lt;/p&gt;&lt;hr size=&quot;1&quot;&gt;&lt;p style=&quot;border-color: var(--border-color); margin: 0px; font-stretch: normal; font-size: 13px; line-height: normal; font-family: &amp;quot;Helvetica Neue&amp;quot;;&quot;&gt;&lt;/p&gt;&lt;p style=&quot;border-color: var(--border-color); margin: 0px; font-stretch: normal; font-size: 13px; line-height: normal; font-family: &amp;quot;Helvetica Neue&amp;quot;;&quot;&gt;+ &amp;lt;&amp;lt;property&amp;gt;&amp;gt; Name:String&lt;/p&gt;&lt;p style=&quot;border-color: var(--border-color); margin: 0px; font-stretch: normal; font-size: 13px; line-height: normal; font-family: &amp;quot;Helvetica Neue&amp;quot;;&quot;&gt;+ &amp;lt;&amp;lt;property&amp;gt;&amp;gt; Tables:Dictionary &amp;lt; String, Table&amp;gt;&lt;/p&gt;&lt;div&gt;&lt;br&gt;&lt;/div&gt;" style="verticalAlign=top;align=left;overflow=fill;fontSize=12;fontFamily=Helvetica;html=1;whiteSpace=wrap;labelBackgroundColor=none;fillColor=#FAE5C7;strokeColor=#0F8B8D;fontColor=#143642;" vertex="1" parent="1">
          <mxGeometry x="20" y="140" width="290" height="80" as="geometry" />
        </mxCell>
        <mxCell id="bzcQoa7W-EtqwlG97-EW-3" style="edgeStyle=orthogonalEdgeStyle;shape=connector;rounded=0;jumpSize=3;orthogonalLoop=1;jettySize=auto;html=1;labelBackgroundColor=none;strokeColor=#A8201A;strokeWidth=1;align=center;verticalAlign=middle;fontFamily=Helvetica;fontSize=11;fontColor=default;endArrow=diamond;endFill=1;startSize=0;endSize=16;" edge="1" parent="1" source="bzcQoa7W-EtqwlG97-EW-5">
          <mxGeometry relative="1" as="geometry">
            <mxPoint x="310" y="180" as="targetPoint" />
          </mxGeometry>
        </mxCell>
        <mxCell id="bzcQoa7W-EtqwlG97-EW-4" value="1.1" style="edgeLabel;html=1;align=center;verticalAlign=middle;resizable=0;points=[];fontSize=11;fontFamily=Helvetica;fontColor=#143642;labelBackgroundColor=none;" vertex="1" connectable="0" parent="bzcQoa7W-EtqwlG97-EW-3">
          <mxGeometry x="-0.0835" relative="1" as="geometry">
            <mxPoint as="offset" />
          </mxGeometry>
        </mxCell>
        <mxCell id="bzcQoa7W-EtqwlG97-EW-5" value="&lt;p style=&quot;margin:0px;margin-top:4px;text-align:center;&quot;&gt;&lt;b&gt;Table&lt;/b&gt;&lt;/p&gt;&lt;hr size=&quot;1&quot;&gt;&lt;p style=&quot;margin:0px;margin-left:4px;&quot;&gt;&lt;span style=&quot;font-family: &amp;quot;Helvetica Neue&amp;quot;; font-size: 13px;&quot;&gt;+ &amp;lt;&amp;lt;property&amp;gt;&amp;gt; Name:String&lt;/span&gt;&lt;/p&gt;&lt;p style=&quot;margin:0px;margin-left:4px;&quot;&gt;&lt;span style=&quot;font-family: &amp;quot;Helvetica Neue&amp;quot;; font-size: 13px;&quot;&gt;+ &amp;lt;&amp;lt;property&amp;gt;&amp;gt; Relations:List&amp;lt;Relation&amp;gt;&amp;nbsp;&lt;/span&gt;&lt;/p&gt;&lt;p style=&quot;margin:0px;margin-left:4px;&quot;&gt;&lt;span style=&quot;font-family: &amp;quot;Helvetica Neue&amp;quot;; font-size: 13px;&quot;&gt;+ &amp;lt;&amp;lt;property&amp;gt;&amp;gt; Columns:List&amp;lt;Column&amp;gt;&lt;/span&gt;&lt;/p&gt;&lt;p style=&quot;border-color: var(--border-color); margin: 0px; font-stretch: normal; line-height: normal;&quot;&gt;&amp;nbsp;&lt;span style=&quot;font-family: &amp;quot;Helvetica Neue&amp;quot;; font-size: 13px;&quot;&gt;+ &amp;lt;&amp;lt;property&amp;gt;&amp;gt; Rows:List&amp;lt;Row&amp;gt;&lt;/span&gt;&lt;/p&gt;&lt;hr size=&quot;1&quot;&gt;&lt;p style=&quot;margin:0px;margin-left:4px;&quot;&gt;&lt;br&gt;&lt;/p&gt;" style="verticalAlign=top;align=left;overflow=fill;fontSize=12;fontFamily=Helvetica;html=1;whiteSpace=wrap;labelBackgroundColor=none;fillColor=#FAE5C7;strokeColor=#0F8B8D;fontColor=#143642;" vertex="1" parent="1">
          <mxGeometry x="370" y="115" width="280" height="130" as="geometry" />
        </mxCell>
        <mxCell id="bzcQoa7W-EtqwlG97-EW-6" value="" style="edgeStyle=orthogonalEdgeStyle;shape=connector;rounded=0;jumpSize=3;orthogonalLoop=1;jettySize=auto;html=1;labelBackgroundColor=none;strokeColor=#A8201A;strokeWidth=1;align=center;verticalAlign=middle;fontFamily=Helvetica;fontSize=11;fontColor=default;endArrow=diamond;endFill=1;startSize=0;endSize=16;" edge="1" parent="1" source="bzcQoa7W-EtqwlG97-EW-9" target="bzcQoa7W-EtqwlG97-EW-5">
          <mxGeometry relative="1" as="geometry">
            <Array as="points">
              <mxPoint x="830" y="575" />
              <mxPoint x="830" y="180" />
            </Array>
          </mxGeometry>
        </mxCell>
        <mxCell id="bzcQoa7W-EtqwlG97-EW-7" value="1..1" style="edgeLabel;html=1;align=center;verticalAlign=middle;resizable=0;points=[];fontSize=11;fontFamily=Helvetica;fontColor=#143642;labelBackgroundColor=none;" vertex="1" connectable="0" parent="bzcQoa7W-EtqwlG97-EW-6">
          <mxGeometry x="0.6988" y="1" relative="1" as="geometry">
            <mxPoint as="offset" />
          </mxGeometry>
        </mxCell>
        <mxCell id="bzcQoa7W-EtqwlG97-EW-8" value="0..*" style="edgeLabel;html=1;align=center;verticalAlign=middle;resizable=0;points=[];fontSize=11;fontFamily=Helvetica;fontColor=#143642;labelBackgroundColor=none;" vertex="1" connectable="0" parent="bzcQoa7W-EtqwlG97-EW-6">
          <mxGeometry x="-0.8123" y="1" relative="1" as="geometry">
            <mxPoint as="offset" />
          </mxGeometry>
        </mxCell>
        <mxCell id="bzcQoa7W-EtqwlG97-EW-9" value="&lt;p style=&quot;margin:0px;margin-top:4px;text-align:center;&quot;&gt;&lt;b&gt;Relation&lt;/b&gt;&lt;/p&gt;&lt;hr size=&quot;1&quot;&gt;&lt;p style=&quot;margin:0px;margin-left:4px;&quot;&gt;+ &amp;lt;&amp;lt;property&amp;gt;&amp;gt; ForeignKeyColumn:Column&amp;nbsp;&lt;/p&gt;&lt;p style=&quot;margin:0px;margin-left:4px;&quot;&gt;+ &amp;lt;&amp;lt;propertyÂ»&amp;gt; OriginColumn:Column&lt;br&gt;&lt;/p&gt;&lt;hr size=&quot;1&quot;&gt;&lt;p style=&quot;margin:0px;margin-left:4px;&quot;&gt;&lt;br&gt;&lt;/p&gt;" style="verticalAlign=top;align=left;overflow=fill;fontSize=12;fontFamily=Helvetica;html=1;whiteSpace=wrap;labelBackgroundColor=none;fillColor=#FAE5C7;strokeColor=#0F8B8D;fontColor=#143642;" vertex="1" parent="1">
          <mxGeometry x="110" y="520" width="220" height="110" as="geometry" />
        </mxCell>
        <mxCell id="bzcQoa7W-EtqwlG97-EW-10" style="edgeStyle=orthogonalEdgeStyle;shape=connector;rounded=0;jumpSize=3;orthogonalLoop=1;jettySize=auto;html=1;entryX=0.5;entryY=1;entryDx=0;entryDy=0;labelBackgroundColor=none;strokeColor=#A8201A;strokeWidth=1;align=center;verticalAlign=middle;fontFamily=Helvetica;fontSize=11;fontColor=default;endArrow=diamond;endFill=1;startSize=0;endSize=16;" edge="1" parent="1" source="bzcQoa7W-EtqwlG97-EW-16" target="bzcQoa7W-EtqwlG97-EW-5">
          <mxGeometry relative="1" as="geometry" />
        </mxCell>
        <mxCell id="bzcQoa7W-EtqwlG97-EW-11" value="1..1" style="edgeLabel;html=1;align=center;verticalAlign=middle;resizable=0;points=[];fontSize=11;fontFamily=Helvetica;fontColor=#143642;labelBackgroundColor=none;" vertex="1" connectable="0" parent="bzcQoa7W-EtqwlG97-EW-10">
          <mxGeometry x="0.7595" y="2" relative="1" as="geometry">
            <mxPoint as="offset" />
          </mxGeometry>
        </mxCell>
        <mxCell id="bzcQoa7W-EtqwlG97-EW-12" value="0..*" style="edgeLabel;html=1;align=center;verticalAlign=middle;resizable=0;points=[];fontSize=11;fontFamily=Helvetica;fontColor=#143642;labelBackgroundColor=none;" vertex="1" connectable="0" parent="bzcQoa7W-EtqwlG97-EW-10">
          <mxGeometry x="-0.8357" y="-3" relative="1" as="geometry">
            <mxPoint as="offset" />
          </mxGeometry>
        </mxCell>
        <mxCell id="bzcQoa7W-EtqwlG97-EW-13" style="edgeStyle=orthogonalEdgeStyle;shape=connector;rounded=0;jumpSize=3;orthogonalLoop=1;jettySize=auto;html=1;entryX=0.545;entryY=-0.027;entryDx=0;entryDy=0;labelBackgroundColor=none;strokeColor=#A8201A;strokeWidth=1;align=center;verticalAlign=middle;fontFamily=Helvetica;fontSize=11;fontColor=default;endArrow=diamond;endFill=0;startSize=0;endSize=16;exitX=0.553;exitY=1;exitDx=0;exitDy=0;exitPerimeter=0;entryPerimeter=0;" edge="1" parent="1" source="bzcQoa7W-EtqwlG97-EW-16" target="bzcQoa7W-EtqwlG97-EW-9">
          <mxGeometry relative="1" as="geometry">
            <Array as="points">
              <mxPoint x="230" y="430" />
              <mxPoint x="230" y="430" />
            </Array>
          </mxGeometry>
        </mxCell>
        <mxCell id="bzcQoa7W-EtqwlG97-EW-14" value="1..1" style="edgeLabel;html=1;align=center;verticalAlign=middle;resizable=0;points=[];fontSize=11;fontFamily=Helvetica;fontColor=#143642;labelBackgroundColor=none;" vertex="1" connectable="0" parent="bzcQoa7W-EtqwlG97-EW-13">
          <mxGeometry x="-0.7086" y="-2" relative="1" as="geometry">
            <mxPoint x="12" as="offset" />
          </mxGeometry>
        </mxCell>
        <mxCell id="bzcQoa7W-EtqwlG97-EW-15" value="1..1" style="edgeLabel;html=1;align=center;verticalAlign=middle;resizable=0;points=[];fontSize=11;fontFamily=Helvetica;fontColor=#143642;labelBackgroundColor=none;" vertex="1" connectable="0" parent="bzcQoa7W-EtqwlG97-EW-13">
          <mxGeometry x="0.9411" y="-2" relative="1" as="geometry">
            <mxPoint x="22" y="-4" as="offset" />
          </mxGeometry>
        </mxCell>
        <mxCell id="bzcQoa7W-EtqwlG97-EW-16" value="&lt;p style=&quot;margin:0px;margin-top:4px;text-align:center;&quot;&gt;&lt;b&gt;Column&lt;/b&gt;&lt;/p&gt;&lt;hr size=&quot;1&quot;&gt;&lt;p style=&quot;margin:0px;margin-left:4px;&quot;&gt;&lt;span style=&quot;font-family: &amp;quot;Helvetica Neue&amp;quot;; font-size: 13px;&quot;&gt;+ &amp;lt;&amp;lt;property&amp;gt;&amp;gt; Name:String + &amp;lt;&amp;lt;readonly&amp;gt;&amp;gt; CanBeNull:Bool&lt;/span&gt;&lt;/p&gt;&lt;br style=&quot;border-color: var(--border-color);&quot;&gt;&lt;p style=&quot;border-color: var(--border-color); margin: 0px; font-stretch: normal; font-size: 13px; line-height: normal; font-family: &amp;quot;Helvetica Neue&amp;quot;;&quot;&gt;+ &amp;lt;&amp;lt;readonly&amp;gt;&amp;gt; IsPrimaryKey:Bool&lt;/p&gt;&lt;hr size=&quot;1&quot;&gt;&lt;p style=&quot;margin:0px;margin-left:4px;&quot;&gt;&lt;br&gt;&lt;/p&gt;" style="verticalAlign=top;align=left;overflow=fill;fontSize=12;fontFamily=Helvetica;html=1;whiteSpace=wrap;labelBackgroundColor=none;fillColor=#FAE5C7;strokeColor=#0F8B8D;fontColor=#143642;" vertex="1" parent="1">
          <mxGeometry x="20" y="295" width="380" height="120" as="geometry" />
        </mxCell>
        <mxCell id="bzcQoa7W-EtqwlG97-EW-17" value="&lt;p style=&quot;margin:0px;margin-top:4px;text-align:center;&quot;&gt;&lt;b&gt;Row&lt;/b&gt;&lt;/p&gt;&lt;hr size=&quot;1&quot;&gt;&lt;p style=&quot;margin:0px;margin-left:4px;&quot;&gt;&lt;/p&gt;&lt;span style=&quot;font-family: &amp;quot;Helvetica Neue&amp;quot;; font-size: 13px;&quot;&gt;+ &amp;lt;&amp;lt;property&amp;gt;&amp;gt; Values:List&amp;lt;object&amp;gt;&lt;/span&gt;&lt;br&gt;&lt;hr size=&quot;1&quot;&gt;&lt;p style=&quot;margin:0px;margin-left:4px;&quot;&gt;&lt;br&gt;&lt;/p&gt;" style="verticalAlign=top;align=left;overflow=fill;fontSize=12;fontFamily=Helvetica;html=1;whiteSpace=wrap;labelBackgroundColor=none;fillColor=#FAE5C7;strokeColor=#0F8B8D;fontColor=#143642;" vertex="1" parent="1">
          <mxGeometry x="425" y="370" width="380" height="80" as="geometry" />
        </mxCell>
        <mxCell id="bzcQoa7W-EtqwlG97-EW-18" value="&lt;font style=&quot;font-size: 23px;&quot;&gt;VOPC&lt;/font&gt;" style="text;html=1;align=center;verticalAlign=middle;resizable=0;points=[];autosize=1;strokeColor=none;fillColor=none;labelBackgroundColor=none;fontColor=#143642;" vertex="1" parent="1">
          <mxGeometry x="440" y="60" width="90" height="40" as="geometry" />
        </mxCell>
        <mxCell id="bzcQoa7W-EtqwlG97-EW-19" style="edgeStyle=orthogonalEdgeStyle;shape=connector;rounded=0;jumpSize=3;orthogonalLoop=1;jettySize=auto;html=1;entryX=0.714;entryY=1;entryDx=0;entryDy=0;entryPerimeter=0;labelBackgroundColor=none;strokeColor=#A8201A;strokeWidth=1;align=center;verticalAlign=middle;fontFamily=Helvetica;fontSize=11;fontColor=default;endArrow=diamond;endFill=1;startSize=0;endSize=16;" edge="1" parent="1" source="bzcQoa7W-EtqwlG97-EW-17" target="bzcQoa7W-EtqwlG97-EW-5">
          <mxGeometry relative="1" as="geometry" />
        </mxCell>
        <mxCell id="bzcQoa7W-EtqwlG97-EW-20" value="0..*" style="edgeLabel;html=1;align=center;verticalAlign=middle;resizable=0;points=[];fontSize=11;fontFamily=Helvetica;fontColor=#143642;labelBackgroundColor=none;" vertex="1" connectable="0" parent="bzcQoa7W-EtqwlG97-EW-19">
          <mxGeometry x="-0.8437" y="-5" relative="1" as="geometry">
            <mxPoint as="offset" />
          </mxGeometry>
        </mxCell>
        <mxCell id="bzcQoa7W-EtqwlG97-EW-21" value="1..1" style="edgeLabel;html=1;align=center;verticalAlign=middle;resizable=0;points=[];fontSize=11;fontFamily=Helvetica;fontColor=#143642;labelBackgroundColor=none;" vertex="1" connectable="0" parent="bzcQoa7W-EtqwlG97-EW-19">
          <mxGeometry x="0.7207" y="-1" relative="1" as="geometry">
            <mxPoint as="offset" />
          </mxGeometry>
        </mxCell>
        <mxCell id="bzcQoa7W-EtqwlG97-EW-22" style="edgeStyle=orthogonalEdgeStyle;shape=connector;rounded=0;jumpSize=3;orthogonalLoop=1;jettySize=auto;html=1;entryX=0;entryY=0.5;entryDx=0;entryDy=0;labelBackgroundColor=none;strokeColor=#A8201A;strokeWidth=1;align=center;verticalAlign=middle;fontFamily=Helvetica;fontSize=11;fontColor=default;endArrow=diamond;endFill=0;startSize=0;endSize=16;exitX=0.5;exitY=1;exitDx=0;exitDy=0;" edge="1" parent="1" source="bzcQoa7W-EtqwlG97-EW-16" target="bzcQoa7W-EtqwlG97-EW-9">
          <mxGeometry relative="1" as="geometry">
            <mxPoint x="210" y="420" as="sourcePoint" />
            <Array as="points">
              <mxPoint x="210" y="463" />
              <mxPoint x="50" y="463" />
              <mxPoint x="50" y="575" />
            </Array>
          </mxGeometry>
        </mxCell>
        <mxCell id="bzcQoa7W-EtqwlG97-EW-23" value="1..1" style="edgeLabel;html=1;align=center;verticalAlign=middle;resizable=0;points=[];fontSize=11;fontFamily=Helvetica;fontColor=#143642;labelBackgroundColor=none;" vertex="1" connectable="0" parent="bzcQoa7W-EtqwlG97-EW-22">
          <mxGeometry x="-0.6961" y="3" relative="1" as="geometry">
            <mxPoint x="-10" y="-16" as="offset" />
          </mxGeometry>
        </mxCell>
        <mxCell id="bzcQoa7W-EtqwlG97-EW-24" value="1..1" style="edgeLabel;html=1;align=center;verticalAlign=middle;resizable=0;points=[];fontSize=11;fontFamily=Helvetica;fontColor=#143642;labelBackgroundColor=none;" vertex="1" connectable="0" parent="bzcQoa7W-EtqwlG97-EW-22">
          <mxGeometry x="0.9283" y="-1" relative="1" as="geometry">
            <mxPoint x="-6" y="-16" as="offset" />
          </mxGeometry>
        </mxCell>
      </root>
    </mxGraphModel>
  </diagram>
</mxfile>
